<?xml version="1.0" standalone="no"?>
<!DOCTYPE svg PUBLIC "-//W3C//DTD SVG 20010904//EN"
 "http://www.w3.org/TR/2001/REC-SVG-20010904/DTD/svg10.dtd">
<svg version="1.0" xmlns="http://www.w3.org/2000/svg"
 width="300.000000pt" height="300.000000pt" viewBox="0 0 300.000000 300.000000"
 preserveAspectRatio="xMidYMid meet">
<metadata>
Created by potrace 1.10, written by Peter Selinger 2001-2011
</metadata>
<g transform="translate(0.000000,300.000000) scale(0.100000,-0.100000)"
fill="#000000" stroke="none">
<path d="M1426 2517 c-18 -18 -34 -24 -68 -23 -55 1 -95 -23 -114 -71 -19 -44
-11 -80 28 -134 l30 -41 -18 -40 c-18 -40 -18 -42 10 -108 4 -10 -6 -22 -31
-37 -21 -12 -64 -44 -95 -72 l-56 -51 -219 -3 c-240 -2 -260 -7 -307 -70 -21
-28 -21 -37 -24 -563 -2 -523 -3 -534 -22 -534 -11 0 -34 -13 -52 -29 -33 -29
-33 -30 -33 -123 0 -111 14 -141 72 -157 52 -15 1894 -15 1946 0 58 16 72 46
72 157 0 93 0 94 -33 123 -18 16 -41 29 -52 29 -19 0 -20 11 -22 534 -3 526
-3 535 -24 563 -47 63 -67 68 -307 70 l-219 3 -56 51 c-31 28 -74 60 -95 72
-25 15 -35 27 -31 37 28 66 28 68 10 108 l-18 40 30 41 c40 54 47 90 28 135
-20 48 -70 79 -118 71 -30 -4 -41 -1 -62 20 -35 35 -116 36 -150 2z m122 -23
c18 -8 34 -20 37 -25 4 -5 11 -7 16 -3 19 11 74 -6 102 -31 34 -32 34 -67 2
-120 -14 -22 -25 -50 -25 -62 0 -13 -6 -23 -12 -23 -48 -2 -331 0 -332 2 -1 2
-19 36 -40 77 -21 40 -32 70 -25 66 9 -6 11 -3 6 8 -3 10 -4 24 -1 32 9 22 65
51 104 54 19 1 48 10 65 21 37 24 62 25 103 4z m107 -329 l0 -30 -155 0 c-141
0 -155 2 -158 18 -9 46 -1 48 160 45 l153 -3 0 -30z m23 -74 c2 -6 10 -17 17
-25 8 -7 11 -16 8 -20 -4 -3 0 -6 8 -6 8 0 34 -18 59 -41 110 -99 94 -94 274
-95 299 -2 280 0 320 -38 l36 -33 0 -522 c0 -453 2 -524 15 -538 26 -25 7 -33
-82 -33 -78 0 -84 2 -77 17 5 10 10 232 12 494 2 375 0 478 -10 487 -38 30
-229 32 -248 1 -11 -16 -5 -101 9 -127 9 -17 7 -68 -5 -159 -3 -29 -3 -60 0
-70 7 -18 8 -24 4 -22 -13 3 -78 -44 -161 -114 -37 -32 -70 -45 -130 -52 l-57
-7 0 32 c0 22 -9 41 -29 61 -27 26 -36 29 -94 29 -50 0 -77 6 -115 25 -28 14
-57 25 -66 25 -9 0 -16 5 -16 10 0 6 -38 10 -95 10 -76 0 -101 -4 -130 -20
-19 -11 -35 -17 -35 -14 0 3 -12 -4 -26 -15 -28 -22 -49 -28 -39 -11 4 6 1 17
-5 25 -6 8 -9 19 -5 25 4 6 0 17 -9 23 -21 16 -31 159 -18 255 6 41 8 80 6 87
-6 16 -61 28 -129 28 -71 1 -113 -11 -126 -35 -13 -24 -19 -898 -6 -898 4 0 7
-14 7 -31 0 -17 4 -28 10 -24 6 4 10 175 10 480 l0 474 110 3 c61 2 110 1 110
-2 0 -3 -7 -27 -15 -54 -27 -89 -18 -225 21 -317 15 -34 15 -37 -15 -85 -17
-27 -66 -141 -110 -254 -93 -241 -96 -250 -82 -250 6 0 11 8 12 18 0 14 2 14
9 -3 9 -20 9 -20 10 0 1 15 4 12 11 -9 4 -17 7 -31 6 -32 -6 -7 -235 -7 -245
0 -9 5 -8 14 2 35 12 22 15 115 15 529 0 546 0 539 57 577 23 15 56 17 243 19
119 1 224 7 232 12 16 9 118 97 166 143 13 13 22 28 20 35 -3 8 45 11 177 9
120 -1 182 -5 184 -12z m562 -842 l0 -479 -410 0 c-429 0 -431 0 -397 41 7 10
88 31 222 58 294 59 309 68 447 240 71 90 86 130 68 186 -15 46 -72 95 -112
95 -27 0 -30 3 -23 23 16 53 17 193 1 256 -9 34 -16 63 -16 64 0 1 49 1 110
-1 l110 -3 0 -480z m-858 71 c50 -25 70 -30 134 -30 70 0 78 -2 105 -29 16
-16 29 -39 29 -51 0 -29 -26 -76 -45 -84 -9 -3 -76 -6 -150 -6 -140 0 -161 -7
-153 -47 3 -16 17 -18 160 -18 176 0 193 6 233 78 18 34 24 37 63 37 52 0 71
9 141 69 120 102 143 110 186 66 43 -42 34 -72 -50 -173 -120 -146 -114 -143
-460 -212 -88 -17 -170 -35 -181 -40 -16 -6 -24 -22 -30 -57 l-9 -48 -262 -3
-261 -2 91 228 c51 125 103 242 117 259 84 103 216 127 342 63z m28 -565 c10
-12 48 -15 221 -15 115 0 209 -3 209 -7 0 -22 -69 -104 -94 -113 -42 -14 -471
-13 -499 2 -28 15 -85 87 -87 109 0 3 42 7 93 8 65 1 96 6 107 16 18 19 34 19
50 0z m-246 -96 c34 -76 46 -79 336 -79 290 0 302 3 336 79 l18 41 310 -2 311
-3 0 -85 0 -85 -975 0 -975 0 -3 74 c-2 41 -1 80 2 88 4 10 65 13 314 13 l308
0 18 -41z"/>
<path d="M1424 1892 c-57 -65 -59 -69 -58 -122 1 -30 7 -68 14 -83 11 -22 11
-33 2 -48 -7 -10 -12 -38 -12 -63 0 -37 7 -52 53 -109 61 -77 88 -85 134 -38
28 28 34 36 73 96 24 36 26 101 5 141 -19 36 -19 48 0 64 29 24 14 98 -30 148
-91 104 -102 105 -181 14z m104 36 c7 -7 12 -22 12 -35 0 -13 6 -23 13 -23 20
0 56 -43 66 -78 19 -65 -42 -86 -64 -22 -9 27 -18 36 -39 38 -34 4 -56 -13
-56 -44 0 -25 33 -54 62 -54 61 0 116 -78 98 -140 -11 -37 -46 -80 -67 -80 -7
0 -13 -11 -13 -24 0 -13 -6 -29 -14 -35 -21 -18 -56 3 -56 33 0 15 -9 27 -25
34 -30 14 -57 65 -53 100 2 21 8 27 27 27 13 0 28 -8 32 -17 5 -10 13 -26 18
-35 13 -28 56 -28 75 -1 9 12 16 26 16 30 0 19 -43 48 -71 48 -47 0 -99 56
-99 107 0 44 30 98 59 108 13 4 21 15 21 29 0 24 17 46 35 46 6 0 16 -5 23
-12z"/>
<path d="M1089 2374 c-10 -13 -9 -26 7 -77 17 -54 23 -62 45 -62 17 0 25 6 27
23 5 32 -26 119 -44 126 -21 8 -20 8 -35 -10z"/>
<path d="M1867 2376 c-17 -18 -40 -97 -35 -122 2 -12 12 -19 28 -19 21 0 27 8
44 62 16 51 17 64 7 77 -17 20 -26 20 -44 2z"/>
<path d="M887 2293 c-17 -17 -2 -44 62 -107 70 -69 102 -82 109 -42 3 12 -19
41 -64 87 -63 64 -90 79 -107 62z"/>
<path d="M2007 2232 c-70 -71 -83 -103 -43 -110 26 -5 158 126 154 153 -6 41
-41 28 -111 -43z"/>
<path d="M794 2085 c-11 -27 3 -42 52 -59 78 -27 113 -19 100 22 -4 11 -27 25
-59 35 -66 21 -86 21 -93 2z"/>
<path d="M2105 2081 c-41 -15 -50 -22 -50 -42 0 -31 29 -36 95 -14 56 19 64
27 55 55 -8 24 -33 25 -100 1z"/>
</g>
</svg>
