<?xml version="1.0" standalone="no"?>
<!DOCTYPE svg PUBLIC "-//W3C//DTD SVG 20010904//EN"
 "http://www.w3.org/TR/2001/REC-SVG-20010904/DTD/svg10.dtd">
<svg version="1.0" xmlns="http://www.w3.org/2000/svg"
 width="512.000000pt" height="512.000000pt" viewBox="0 0 512.000000 512.000000"
 preserveAspectRatio="xMidYMid meet">
<metadata>
Created by potrace 1.14, written by Peter Selinger 2001-2017
</metadata>
<g transform="translate(0.000000,512.000000) scale(0.100000,-0.100000)"
fill="#000000" stroke="none">
<path d="M2470 4321 c-19 -11 -45 -30 -58 -44 -21 -22 -29 -24 -87 -19 -52 4
-71 1 -110 -18 -68 -33 -105 -94 -105 -172 0 -66 11 -93 76 -185 26 -36 40
-64 34 -68 -6 -4 -20 -25 -31 -47 -27 -53 -22 -125 11 -171 16 -20 19 -32 12
-35 -27 -9 -187 -133 -252 -196 l-69 -66 -368 0 c-365 0 -368 0 -418 -24 -56
-26 -98 -70 -126 -131 -18 -38 -19 -91 -19 -937 l0 -898 -30 0 c-50 0 -107
-35 -131 -81 -18 -37 -20 -55 -17 -197 3 -144 5 -160 25 -188 49 -69 -87 -64
1753 -64 1840 0 1704 -5 1753 64 20 28 22 44 25 188 3 142 1 160 -17 197 -24
46 -81 81 -131 81 l-30 0 0 898 c0 846 -1 899 -19 937 -28 61 -70 105 -126
131 -50 24 -53 24 -418 24 l-368 0 -69 66 c-65 63 -225 187 -252 196 -7 3 -4
15 12 35 33 46 38 118 11 171 -11 22 -25 43 -31 47 -6 4 8 32 34 68 65 92 76
119 76 185 0 78 -37 139 -105 172 -39 19 -58 22 -110 18 -58 -5 -66 -3 -87 19
-58 62 -166 82 -238 44z m338 -578 c34 -30 37 -59 8 -88 l-25 -25 -231 0 -231
0 -25 25 c-29 29 -26 58 8 88 18 15 45 17 248 17 203 0 230 -2 248 -17z m-204
-454 c19 -15 26 -30 26 -54 0 -27 5 -35 29 -45 60 -25 111 -104 111 -174 0
-27 -6 -40 -26 -53 -39 -25 -73 -3 -91 60 -12 40 -20 51 -48 63 -58 24 -115
-14 -115 -76 0 -48 30 -76 95 -85 61 -9 91 -24 132 -67 79 -83 70 -206 -22
-286 -20 -18 -42 -32 -50 -32 -10 0 -15 -11 -15 -35 0 -54 -49 -92 -86 -67
-17 11 -34 48 -34 75 0 18 -8 28 -30 37 -80 33 -137 163 -93 212 36 41 103 9
103 -50 0 -33 43 -72 79 -72 76 0 114 97 57 146 -15 13 -39 24 -53 24 -49 0
-104 24 -142 62 -90 89 -75 234 32 303 36 24 46 36 46 58 1 27 39 77 59 77 5
0 21 -9 36 -21z m-934 -334 c0 -3 -9 -38 -21 -78 -27 -93 -36 -271 -19 -374 6
-43 27 -118 45 -167 l33 -89 -34 -45 c-46 -61 -61 -94 -224 -507 -78 -198
-144 -362 -146 -364 -2 -2 -4 363 -4 812 l0 817 185 0 c102 0 185 -2 185 -5z
m2150 -820 l0 -825 -700 0 -700 0 6 28 c17 69 -9 60 400 144 511 106 514 107
730 371 63 77 123 156 133 176 56 111 19 245 -86 311 -26 17 -68 33 -94 36
l-47 6 17 57 c11 40 16 99 16 206 0 126 -4 162 -23 228 -12 42 -22 79 -22 82
0 3 83 5 185 5 l185 0 0 -825z m-1541 154 c30 -11 77 -34 105 -52 49 -31 53
-32 191 -37 113 -4 146 -9 168 -23 89 -58 88 -194 -2 -249 -34 -22 -47 -23
-266 -26 -141 -2 -235 -7 -242 -14 -18 -15 -16 -63 3 -82 23 -24 441 -23 511
0 71 24 119 67 151 135 l27 59 78 0 c100 0 121 11 272 140 66 57 135 109 154
117 56 24 128 -3 157 -58 19 -38 18 -99 -3 -129 -55 -81 -259 -313 -298 -340
-68 -47 -116 -60 -530 -145 -249 -51 -386 -83 -397 -94 -9 -9 -25 -52 -35 -96
l-18 -80 -438 -3 c-288 -1 -437 1 -437 8 0 14 276 713 301 762 33 65 125 150
200 186 114 54 230 61 348 21z m-303 -1146 c30 -70 66 -109 119 -134 37 -17
72 -19 465 -19 393 0 428 2 465 19 53 25 89 64 119 134 l26 57 512 0 c462 0
513 -2 530 -17 15 -14 18 -33 18 -136 0 -98 -3 -124 -17 -139 -15 -17 -80 -18
-1651 -18 -1508 0 -1637 1 -1654 17 -15 14 -18 33 -18 136 0 98 3 124 17 139
15 17 45 18 530 18 l513 0 26 -57z"/>
<path d="M1854 4045 c-16 -24 -15 -30 15 -126 25 -79 37 -102 56 -111 33 -15
75 12 75 49 0 34 -38 161 -56 191 -20 31 -68 30 -90 -3z"/>
<path d="M3176 4048 c-18 -29 -56 -157 -56 -190 0 -38 34 -64 68 -52 23 8 31
22 61 112 31 97 32 103 17 127 -22 33 -70 34 -90 3z"/>
<path d="M1512 3918 c-7 -7 -12 -26 -12 -43 0 -26 18 -49 118 -148 66 -64 125
-117 133 -117 28 0 59 31 59 58 0 21 -25 53 -118 145 -119 119 -149 136 -180
105z"/>
<path d="M3427 3812 c-91 -91 -117 -123 -117 -144 0 -27 31 -58 59 -58 8 0 67
53 133 117 100 99 118 122 118 148 0 38 -16 55 -50 55 -19 0 -54 -29 -143
-118z"/>
<path d="M1383 3580 c-12 -5 -25 -20 -29 -34 -11 -44 10 -62 112 -96 106 -36
138 -33 150 14 11 43 -10 62 -101 90 -47 15 -91 29 -98 31 -6 2 -22 0 -34 -5z"/>
<path d="M3612 3558 c-98 -31 -119 -50 -108 -94 12 -47 44 -50 150 -14 111 37
139 67 104 112 -22 27 -50 27 -146 -4z"/>
</g>
</svg>
